<?xml version="1.0" encoding="UTF-8"?>
<svg xmlns="http://www.w3.org/2000/svg" viewBox="0 0 256 256" role="img" aria-label="OMG source file icon">
  <defs>
    <linearGradient id="omg-purple" x1="0" y1="0" x2="1" y2="1">
      <stop offset="0" stop-color="#9B5CFF"/>
      <stop offset="1" stop-color="#6D3FE0"/>
    </linearGradient>
  </defs>

  <path
    d="M54 18h101l47 47v155c0 10-8 18-18 18H54c-10 0-18-8-18-18V36c0-10 8-18 18-18z"
    fill="#F8FAFC"
    stroke="#081A33"
    stroke-width="14"
    stroke-linejoin="round"
  />

  <path
    d="M155 18v47h47z"
    fill="url(#omg-purple)"
    stroke="#081A33"
    stroke-width="14"
    stroke-linejoin="round"
  />

  <path
    d="M58 35h84v42c0 7 6 13 13 13h42v126c0 5-4 9-9 9H58c-5 0-9-4-9-9V44c0-5 4-9 9-9z"
    fill="#FFFFFF"
    opacity="0.72"
  />

  <text
    x="128"
    y="161"
    text-anchor="middle"
    dominant-baseline="middle"
    font-family="Inter, Segoe UI, Arial, sans-serif"
    font-size="68"
    font-weight="900"
    letter-spacing="-5"
  >
    <tspan fill="#081A33">O</tspan><tspan fill="#7C4DFF">M</tspan><tspan fill="#081A33">G</tspan>
  </text>
</svg>