<?xml version="1.0" encoding="UTF-8"?>
<svg xmlns="http://www.w3.org/2000/svg" viewBox="0 0 256 256" role="img" aria-label="OMGB compiled binary file icon">
  <defs>
    <linearGradient id="omgb-purple" x1="0" y1="0" x2="1" y2="1">
      <stop offset="0" stop-color="#9B5CFF"/>
      <stop offset="1" stop-color="#6D3FE0"/>
    </linearGradient>
  </defs>

  <path
    d="M54 18h101l47 47v155c0 10-8 18-18 18H54c-10 0-18-8-18-18V36c0-10 8-18 18-18z"
    fill="#F8FAFC"
    stroke="#081A33"
    stroke-width="14"
    stroke-linejoin="round"
  />

  <path
    d="M155 18v47h47z"
    fill="url(#omgb-purple)"
    stroke="#081A33"
    stroke-width="14"
    stroke-linejoin="round"
  />

  <path
    d="M58 35h84v42c0 7 6 13 13 13h42v126c0 5-4 9-9 9H58c-5 0-9-4-9-9V44c0-5 4-9 9-9z"
    fill="#FFFFFF"
    opacity="0.72"
  />

  <text
    x="122"
    y="143"
    text-anchor="middle"
    dominant-baseline="middle"
    font-family="Inter, Segoe UI, Arial, sans-serif"
    font-size="60"
    font-weight="900"
    letter-spacing="-5"
  >
    <tspan fill="#081A33">O</tspan><tspan fill="#7C4DFF">M</tspan><tspan fill="#081A33">G</tspan>
  </text>

  <g transform="translate(142 157)">
    <g fill="#081A33">
      <rect x="22" y="-14" width="8" height="18" rx="3"/>
      <rect x="43" y="-14" width="8" height="18" rx="3"/>
      <rect x="64" y="-14" width="8" height="18" rx="3"/>
      <rect x="22" y="65" width="8" height="18" rx="3"/>
      <rect x="43" y="65" width="8" height="18" rx="3"/>
      <rect x="64" y="65" width="8" height="18" rx="3"/>
      <rect x="-14" y="19" width="18" height="8" rx="3"/>
      <rect x="-14" y="40" width="18" height="8" rx="3"/>
      <rect x="90" y="19" width="18" height="8" rx="3"/>
      <rect x="90" y="40" width="18" height="8" rx="3"/>
    </g>

    <rect
      x="0"
      y="0"
      width="94"
      height="70"
      rx="15"
      fill="url(#omgb-purple)"
      stroke="#081A33"
      stroke-width="10"
    />

    <text
      x="47"
      y="39"
      text-anchor="middle"
      dominant-baseline="middle"
      font-family="Inter, Segoe UI, Arial, sans-serif"
      font-size="34"
      font-weight="900"
      letter-spacing="-2"
      fill="#FFFFFF"
    >01</text>
  </g>
</svg>